{
	"asset":{
		"generator":"Khronos glTF Blender I/O v3.5.30",
		"version":"2.0"
	},
	"scene":0,
	"scenes":[
		{
			"name":"Scene",
			"nodes":[
				0,
				1,
				2,
				3,
				4,
				5,
				6,
				7,
				8,
				9,
				10,
				11,
				12
			]
		}
	],
	"nodes":[
		{
			"mesh":0,
			"name":"Cube",
			"scale":[
				6.499303340911865,
				0.8243405222892761,
				3.2763218879699707
			],
			"translation":[
				0,
				3.505526542663574,
				-0.356587290763855
			]
		},
		{
			"mesh":1,
			"name":"Cube.001",
			"scale":[
				6.667758941650391,
				3.1207873821258545,
				0.1713281273841858
			],
			"translation":[
				0.02481013536453247,
				4.268819332122803,
				2.6221935749053955
			]
		},
		{
			"mesh":2,
			"name":"Cube.002",
			"rotation":[
				-0.7110357284545898,
				0,
				0,
				0.7031559348106384
			],
			"scale":[
				6.667758941650391,
				3.1207871437072754,
				0.1713281273841858
			],
			"translation":[
				0.02481013536453247,
				1.3175911903381348,
				-0.6160120964050293
			]
		},
		{
			"mesh":3,
			"name":"Cube.003",
			"rotation":[
				-0.7110357284545898,
				0,
				0,
				0.7031559348106384
			],
			"scale":[
				6.667758941650391,
				3.1207871437072754,
				0.1713281273841858
			],
			"translation":[
				0.02481013536453247,
				2.9195942878723145,
				-0.6160120964050293
			]
		},
		{
			"mesh":4,
			"name":"Cube.004",
			"rotation":[
				0,
				0.7140517234802246,
				0,
				0.7000930309295654
			],
			"scale":[
				4.100435256958008,
				3.1207873821258545,
				0.17130737006664276
			],
			"translation":[
				-6.722884654998779,
				4.268819332122803,
				0.3195676803588867
			]
		},
		{
			"mesh":5,
			"name":"Cube.005",
			"rotation":[
				0,
				0.7140517234802246,
				0,
				0.7000930309295654
			],
			"scale":[
				4.100435256958008,
				3.1207873821258545,
				0.17130737006664276
			],
			"translation":[
				6.781418323516846,
				4.268819332122803,
				0.3195676803588867
			]
		},
		{
			"mesh":6,
			"name":"Cube.006",
			"rotation":[
				0,
				0.7140517234802246,
				0,
				0.7000930309295654
			],
			"scale":[
				4.100435256958008,
				3.1207873821258545,
				0.17130737006664276
			],
			"translation":[
				0.05819202959537506,
				4.268819332122803,
				0.3195676803588867
			]
		},
		{
			"mesh":7,
			"name":"Cube.007",
			"rotation":[
				0,
				-0.002466735662892461,
				0,
				0.9999969601631165
			],
			"scale":[
				4.286217212677002,
				2.710397243499756,
				0.1487809270620346
			],
			"translation":[
				2.544677495956421,
				3.985025644302368,
				-3.273080587387085
			]
		},
		{
			"mesh":8,
			"name":"Cube.008",
			"rotation":[
				0,
				-0.002466735662892461,
				0,
				0.9999969601631165
			],
			"scale":[
				4.286217212677002,
				2.710397243499756,
				0.1487809270620346
			],
			"translation":[
				-4.197484016418457,
				3.985025644302368,
				-3.273080587387085
			]
		},
		{
			"mesh":9,
			"name":"Sphere",
			"scale":[
				0.2018147110939026,
				0.2018147110939026,
				0.2018147110939026
			],
			"translation":[
				4.547998905181885,
				2.0070159435272217,
				-3.5488903522491455
			]
		},
		{
			"mesh":10,
			"name":"Sphere.001",
			"scale":[
				0.2018147110939026,
				0.2018147110939026,
				0.2018147110939026
			],
			"translation":[
				1.81044602394104,
				2.0070159435272217,
				-3.5488903522491455
			]
		},
		{
			"mesh":11,
			"name":"Sphere.002",
			"scale":[
				0.2018147110939026,
				0.2018147110939026,
				0.2018147110939026
			],
			"translation":[
				-2.1097872257232666,
				2.0070159435272217,
				-3.5488903522491455
			]
		},
		{
			"mesh":12,
			"name":"Sphere.003",
			"scale":[
				0.2018147110939026,
				0.2018147110939026,
				0.2018147110939026
			],
			"translation":[
				-4.815279483795166,
				2.0070159435272217,
				-3.5488903522491455
			]
		}
	],
	"meshes":[
		{
			"name":"Cube.001",
			"primitives":[
				{
					"attributes":{
						"POSITION":0,
						"TEXCOORD_0":1,
						"NORMAL":2
					},
					"indices":3
				}
			]
		},
		{
			"name":"Cube.002",
			"primitives":[
				{
					"attributes":{
						"POSITION":4,
						"TEXCOORD_0":5,
						"NORMAL":6
					},
					"indices":3
				}
			]
		},
		{
			"name":"Cube.003",
			"primitives":[
				{
					"attributes":{
						"POSITION":7,
						"TEXCOORD_0":8,
						"NORMAL":9
					},
					"indices":3
				}
			]
		},
		{
			"name":"Cube.004",
			"primitives":[
				{
					"attributes":{
						"POSITION":10,
						"TEXCOORD_0":11,
						"NORMAL":12
					},
					"indices":3
				}
			]
		},
		{
			"name":"Cube.005",
			"primitives":[
				{
					"attributes":{
						"POSITION":13,
						"TEXCOORD_0":14,
						"NORMAL":15
					},
					"indices":16
				}
			]
		},
		{
			"name":"Cube.006",
			"primitives":[
				{
					"attributes":{
						"POSITION":17,
						"TEXCOORD_0":18,
						"NORMAL":19
					},
					"indices":16
				}
			]
		},
		{
			"name":"Cube.007",
			"primitives":[
				{
					"attributes":{
						"POSITION":20,
						"TEXCOORD_0":21,
						"NORMAL":22
					},
					"indices":16
				}
			]
		},
		{
			"name":"Cube.008",
			"primitives":[
				{
					"attributes":{
						"POSITION":23,
						"TEXCOORD_0":24,
						"NORMAL":25
					},
					"indices":16
				}
			]
		},
		{
			"name":"Cube.009",
			"primitives":[
				{
					"attributes":{
						"POSITION":26,
						"TEXCOORD_0":27,
						"NORMAL":28
					},
					"indices":16
				}
			]
		},
		{
			"name":"Sphere",
			"primitives":[
				{
					"attributes":{
						"POSITION":29,
						"TEXCOORD_0":30,
						"NORMAL":31
					},
					"indices":32
				}
			]
		},
		{
			"name":"Sphere.001",
			"primitives":[
				{
					"attributes":{
						"POSITION":33,
						"TEXCOORD_0":34,
						"NORMAL":35
					},
					"indices":32
				}
			]
		},
		{
			"name":"Sphere.002",
			"primitives":[
				{
					"attributes":{
						"POSITION":36,
						"TEXCOORD_0":37,
						"NORMAL":38
					},
					"indices":32
				}
			]
		},
		{
			"name":"Sphere.003",
			"primitives":[
				{
					"attributes":{
						"POSITION":39,
						"TEXCOORD_0":40,
						"NORMAL":41
					},
					"indices":32
				}
			]
		}
	],
	"accessors":[
		{
			"bufferView":0,
			"componentType":5126,
			"count":24,
			"max":[
				1,
				1,
				1
			],
			"min":[
				-1,
				-1,
				-1
			],
			"type":"VEC3"
		},
		{
			"bufferView":1,
			"componentType":5126,
			"count":24,
			"type":"VEC2"
		},
		{
			"bufferView":2,
			"componentType":5126,
			"count":24,
			"type":"VEC3"
		},
		{
			"bufferView":3,
			"componentType":5123,
			"count":36,
			"type":"SCALAR"
		},
		{
			"bufferView":4,
			"componentType":5126,
			"count":24,
			"max":[
				1,
				0.6806811094284058,
				1
			],
			"min":[
				-1,
				-1,
				-1
			],
			"type":"VEC3"
		},
		{
			"bufferView":5,
			"componentType":5126,
			"count":24,
			"type":"VEC2"
		},
		{
			"bufferView":6,
			"componentType":5126,
			"count":24,
			"type":"VEC3"
		},
		{
			"bufferView":7,
			"componentType":5126,
			"count":24,
			"max":[
				1,
				1,
				1
			],
			"min":[
				-1,
				-1,
				-1
			],
			"type":"VEC3"
		},
		{
			"bufferView":8,
			"componentType":5126,
			"count":24,
			"type":"VEC2"
		},
		{
			"bufferView":9,
			"componentType":5126,
			"count":24,
			"type":"VEC3"
		},
		{
			"bufferView":10,
			"componentType":5126,
			"count":24,
			"max":[
				1,
				1,
				1
			],
			"min":[
				-1,
				-1,
				-1
			],
			"type":"VEC3"
		},
		{
			"bufferView":11,
			"componentType":5126,
			"count":24,
			"type":"VEC2"
		},
		{
			"bufferView":12,
			"componentType":5126,
			"count":24,
			"type":"VEC3"
		},
		{
			"bufferView":13,
			"componentType":5126,
			"count":24,
			"max":[
				1,
				0.6844696998596191,
				1.1863739490509033
			],
			"min":[
				-0.6056255102157593,
				-1,
				-1
			],
			"type":"VEC3"
		},
		{
			"bufferView":14,
			"componentType":5126,
			"count":24,
			"type":"VEC2"
		},
		{
			"bufferView":15,
			"componentType":5126,
			"count":24,
			"type":"VEC3"
		},
		{
			"bufferView":16,
			"componentType":5123,
			"count":36,
			"type":"SCALAR"
		},
		{
			"bufferView":17,
			"componentType":5126,
			"count":24,
			"max":[
				1,
				0.6787504553794861,
				1.1863739490509033
			],
			"min":[
				-0.6056255102157593,
				-1,
				-1
			],
			"type":"VEC3"
		},
		{
			"bufferView":18,
			"componentType":5126,
			"count":24,
			"type":"VEC2"
		},
		{
			"bufferView":19,
			"componentType":5126,
			"count":24,
			"type":"VEC3"
		},
		{
			"bufferView":20,
			"componentType":5126,
			"count":24,
			"max":[
				0.9554354548454285,
				-0.4572330117225647,
				1.209882378578186
			],
			"min":[
				-0.5558808445930481,
				-1,
				-1.0210603475570679
			],
			"type":"VEC3"
		},
		{
			"bufferView":21,
			"componentType":5126,
			"count":24,
			"type":"VEC2"
		},
		{
			"bufferView":22,
			"componentType":5126,
			"count":24,
			"type":"VEC3"
		},
		{
			"bufferView":23,
			"componentType":5126,
			"count":24,
			"max":[
				0.9554354548454285,
				-0.4572330117225647,
				1.209882378578186
			],
			"min":[
				-0.5558808445930481,
				-1,
				-1.0210603475570679
			],
			"type":"VEC3"
		},
		{
			"bufferView":24,
			"componentType":5126,
			"count":24,
			"type":"VEC2"
		},
		{
			"bufferView":25,
			"componentType":5126,
			"count":24,
			"type":"VEC3"
		},
		{
			"bufferView":26,
			"componentType":5126,
			"count":24,
			"max":[
				0.9554354548454285,
				-0.4572330117225647,
				1.209882378578186
			],
			"min":[
				-0.5558808445930481,
				-1,
				-1.0210603475570679
			],
			"type":"VEC3"
		},
		{
			"bufferView":27,
			"componentType":5126,
			"count":24,
			"type":"VEC2"
		},
		{
			"bufferView":28,
			"componentType":5126,
			"count":24,
			"type":"VEC3"
		},
		{
			"bufferView":29,
			"componentType":5126,
			"count":1984,
			"max":[
				0.9999997019767761,
				1,
				0.9999994039535522
			],
			"min":[
				-0.9999990463256836,
				-1,
				-0.9999987483024597
			],
			"type":"VEC3"
		},
		{
			"bufferView":30,
			"componentType":5126,
			"count":1984,
			"type":"VEC2"
		},
		{
			"bufferView":31,
			"componentType":5126,
			"count":1984,
			"type":"VEC3"
		},
		{
			"bufferView":32,
			"componentType":5123,
			"count":2880,
			"type":"SCALAR"
		},
		{
			"bufferView":33,
			"componentType":5126,
			"count":1984,
			"max":[
				0.9999997019767761,
				1,
				0.9999994039535522
			],
			"min":[
				-0.9999990463256836,
				-1,
				-0.9999987483024597
			],
			"type":"VEC3"
		},
		{
			"bufferView":34,
			"componentType":5126,
			"count":1984,
			"type":"VEC2"
		},
		{
			"bufferView":35,
			"componentType":5126,
			"count":1984,
			"type":"VEC3"
		},
		{
			"bufferView":36,
			"componentType":5126,
			"count":1984,
			"max":[
				0.9999997019767761,
				1,
				0.9999994039535522
			],
			"min":[
				-0.9999990463256836,
				-1,
				-0.9999987483024597
			],
			"type":"VEC3"
		},
		{
			"bufferView":37,
			"componentType":5126,
			"count":1984,
			"type":"VEC2"
		},
		{
			"bufferView":38,
			"componentType":5126,
			"count":1984,
			"type":"VEC3"
		},
		{
			"bufferView":39,
			"componentType":5126,
			"count":1984,
			"max":[
				0.9999997019767761,
				1,
				0.9999994039535522
			],
			"min":[
				-0.9999990463256836,
				-1,
				-0.9999987483024597
			],
			"type":"VEC3"
		},
		{
			"bufferView":40,
			"componentType":5126,
			"count":1984,
			"type":"VEC2"
		},
		{
			"bufferView":41,
			"componentType":5126,
			"count":1984,
			"type":"VEC3"
		}
	],
	"bufferViews":[
		{
			"buffer":0,
			"byteLength":288,
			"byteOffset":0,
			"target":34962
		},
		{
			"buffer":0,
			"byteLength":192,
			"byteOffset":288,
			"target":34962
		},
		{
			"buffer":0,
			"byteLength":288,
			"byteOffset":480,
			"target":34962
		},
		{
			"buffer":0,
			"byteLength":72,
			"byteOffset":768,
			"target":34963
		},
		{
			"buffer":0,
			"byteLength":288,
			"byteOffset":840,
			"target":34962
		},
		{
			"buffer":0,
			"byteLength":192,
			"byteOffset":1128,
			"target":34962
		},
		{
			"buffer":0,
			"byteLength":288,
			"byteOffset":1320,
			"target":34962
		},
		{
			"buffer":0,
			"byteLength":288,
			"byteOffset":1608,
			"target":34962
		},
		{
			"buffer":0,
			"byteLength":192,
			"byteOffset":1896,
			"target":34962
		},
		{
			"buffer":0,
			"byteLength":288,
			"byteOffset":2088,
			"target":34962
		},
		{
			"buffer":0,
			"byteLength":288,
			"byteOffset":2376,
			"target":34962
		},
		{
			"buffer":0,
			"byteLength":192,
			"byteOffset":2664,
			"target":34962
		},
		{
			"buffer":0,
			"byteLength":288,
			"byteOffset":2856,
			"target":34962
		},
		{
			"buffer":0,
			"byteLength":288,
			"byteOffset":3144,
			"target":34962
		},
		{
			"buffer":0,
			"byteLength":192,
			"byteOffset":3432,
			"target":34962
		},
		{
			"buffer":0,
			"byteLength":288,
			"byteOffset":3624,
			"target":34962
		},
		{
			"buffer":0,
			"byteLength":72,
			"byteOffset":3912,
			"target":34963
		},
		{
			"buffer":0,
			"byteLength":288,
			"byteOffset":3984,
			"target":34962
		},
		{
			"buffer":0,
			"byteLength":192,
			"byteOffset":4272,
			"target":34962
		},
		{
			"buffer":0,
			"byteLength":288,
			"byteOffset":4464,
			"target":34962
		},
		{
			"buffer":0,
			"byteLength":288,
			"byteOffset":4752,
			"target":34962
		},
		{
			"buffer":0,
			"byteLength":192,
			"byteOffset":5040,
			"target":34962
		},
		{
			"buffer":0,
			"byteLength":288,
			"byteOffset":5232,
			"target":34962
		},
		{
			"buffer":0,
			"byteLength":288,
			"byteOffset":5520,
			"target":34962
		},
		{
			"buffer":0,
			"byteLength":192,
			"byteOffset":5808,
			"target":34962
		},
		{
			"buffer":0,
			"byteLength":288,
			"byteOffset":6000,
			"target":34962
		},
		{
			"buffer":0,
			"byteLength":288,
			"byteOffset":6288,
			"target":34962
		},
		{
			"buffer":0,
			"byteLength":192,
			"byteOffset":6576,
			"target":34962
		},
		{
			"buffer":0,
			"byteLength":288,
			"byteOffset":6768,
			"target":34962
		},
		{
			"buffer":0,
			"byteLength":23808,
			"byteOffset":7056,
			"target":34962
		},
		{
			"buffer":0,
			"byteLength":15872,
			"byteOffset":30864,
			"target":34962
		},
		{
			"buffer":0,
			"byteLength":23808,
			"byteOffset":46736,
			"target":34962
		},
		{
			"buffer":0,
			"byteLength":5760,
			"byteOffset":70544,
			"target":34963
		},
		{
			"buffer":0,
			"byteLength":23808,
			"byteOffset":76304,
			"target":34962
		},
		{
			"buffer":0,
			"byteLength":15872,
			"byteOffset":100112,
			"target":34962
		},
		{
			"buffer":0,
			"byteLength":23808,
			"byteOffset":115984,
			"target":34962
		},
		{
			"buffer":0,
			"byteLength":23808,
			"byteOffset":139792,
			"target":34962
		},
		{
			"buffer":0,
			"byteLength":15872,
			"byteOffset":163600,
			"target":34962
		},
		{
			"buffer":0,
			"byteLength":23808,
			"byteOffset":179472,
			"target":34962
		},
		{
			"buffer":0,
			"byteLength":23808,
			"byteOffset":203280,
			"target":34962
		},
		{
			"buffer":0,
			"byteLength":15872,
			"byteOffset":227088,
			"target":34962
		},
		{
			"buffer":0,
			"byteLength":23808,
			"byteOffset":242960,
			"target":34962
		}
	],
	"buffers":[
		{
			"byteLength":266768,
			"uri":"data:application/octet-stream;base64,"
		}
	]
}
